%
M48
M72
T01C0.0200
T02C0.0276
T03C0.0300
T04C0.0315
T05C0.0320
T06C0.0354
T07C0.0394
T08C0.0400
T09C0.0470
T10C0.0866
T11C0.1300
%
T01
X20725Y30600
X24525Y31500
X24825Y33250
X26825Y32400
X27625Y31650
X26925Y30750
X29725Y35350
X28725Y35600
X32925Y31950
X35975Y33100
X33425Y39800
X36225Y44550
X26225Y47350
X25825Y44750
X22525Y47150
X23775Y39900
T02
X8225Y57100
X7225Y57100
X7225Y15100
X6225Y15100
T03
X9455Y17390
X9808Y17037
X10162Y16683
X10515Y16330
X12000Y15037
X12397Y14732
X12793Y14428
X13190Y14123
X14825Y13025
X15258Y12775
X15692Y12525
X16125Y12275
X17892Y11407
X18354Y11216
X18816Y11024
X19278Y10833
X21141Y10194
X21624Y10065
X22106Y9935
X22589Y9806
X24521Y9428
X25017Y9363
X25513Y9297
X26009Y9232
X27975Y9100
X28475Y9100
X28975Y9100
X29475Y9100
X31441Y9232
X31937Y9297
X32433Y9363
X32929Y9428
X34861Y9806
X35344Y9935
X35826Y10065
X36309Y10194
X38172Y10833
X38634Y11024
X39096Y11216
X39558Y11407
X41325Y12275
X41758Y12525
X42192Y12775
X42625Y13025
X44260Y14123
X44657Y14428
X45053Y14732
X45450Y15037
X46935Y16330
X47288Y16683
X47642Y17037
X47995Y17390
X49288Y18875
X49593Y19272
X49897Y19668
X50202Y20065
X51300Y21700
X51550Y22133
X51800Y22567
X52050Y23000
X52918Y24767
X53109Y25229
X53301Y25691
X53492Y26153
X54131Y28016
X54260Y28499
X54390Y28981
X54519Y29464
X54897Y31396
X54962Y31892
X55028Y32388
X55093Y32884
X55225Y34850
X55225Y35350
X55225Y35850
X55225Y36350
X55093Y38316
X55028Y38812
X54962Y39308
X54897Y39804
X54519Y41736
X54390Y42219
X54260Y42701
X54131Y43184
X53492Y45047
X53301Y45509
X53109Y45971
X52918Y46433
X52050Y48200
X51800Y48633
X51550Y49067
X51300Y49500
X50202Y51135
X49897Y51532
X49593Y51928
X49288Y52325
X47995Y53810
X47642Y54163
X47288Y54517
X46935Y54870
X45450Y56163
X45053Y56468
X44657Y56772
X44260Y57077
X42625Y58175
X42192Y58425
X41758Y58675
X41325Y58925
X39558Y59793
X39096Y59984
X38634Y60176
X38172Y60367
X36309Y61006
X35826Y61135
X35344Y61265
X34861Y61394
X32929Y61772
X32433Y61837
X31937Y61903
X31441Y61968
X29475Y62100
X28975Y62100
X28475Y62100
X27975Y62100
X26009Y61968
X25513Y61903
X25017Y61837
X24521Y61772
X22589Y61394
X22106Y61265
X21624Y61135
X21141Y61006
X19278Y60367
X18816Y60176
X18354Y59984
X17892Y59793
X16125Y58925
X15692Y58675
X15258Y58425
X14825Y58175
X13190Y57077
X12793Y56772
X12397Y56468
X12000Y56163
X10515Y54870
X10162Y54517
X9808Y54163
X9455Y53810
X8162Y52325
X7857Y51928
X7553Y51532
X7248Y51135
X6150Y49500
X5900Y49067
X5650Y48633
X5400Y48200
X4532Y46433
X4341Y45971
X4149Y45509
X3958Y45047
X3319Y43184
X3190Y42701
X3060Y42219
X2931Y41736
X2553Y39804
X2488Y39308
X2422Y38812
X2357Y38316
X2225Y36350
X2225Y35850
X2225Y35350
X2225Y34850
X2357Y32884
X2422Y32388
X2488Y31892
X2553Y31396
X2931Y29464
X3060Y28981
X3190Y28499
X3319Y28016
X3958Y26153
X4149Y25691
X4341Y25229
X4532Y24767
X5400Y23000
X5650Y22567
X5900Y22133
X6150Y21700
X7248Y20065
X7553Y19668
X7857Y19272
X8162Y18875
T04
X22188Y27600
X23762Y27600
X33688Y27600
X35262Y27600
T05
X37740Y27600
X39710Y27600
X48615Y23547
X49115Y24413
X40788Y15710
X39922Y15210
X30225Y19100
X30225Y20100
X30225Y21100
X30225Y22100
X30225Y24100
X30225Y25100
X28725Y25100
X28725Y24100
X27225Y24100
X27225Y25100
X27225Y22100
X27225Y21100
X27225Y20100
X27225Y19100
X28225Y12350
X29225Y12350
X17538Y15210
X16672Y15710
X8835Y23547
X8335Y24413
X17740Y27600
X19710Y27600
X5475Y35100
X5475Y36100
X8335Y46787
X8835Y47653
X16662Y55490
X17528Y55990
X22225Y54600
X23225Y54600
X24225Y54600
X25225Y54600
X26225Y54600
X27225Y54600
X28225Y54600
X29225Y54600
X30225Y54600
X31225Y54600
X32225Y54600
X33225Y54600
X34225Y54600
X35225Y54600
X35225Y51600
X34225Y51600
X33225Y51600
X32225Y51600
X31225Y51600
X30225Y51600
X29225Y51600
X28225Y51600
X27225Y51600
X26225Y51600
X25225Y51600
X24225Y51600
X23225Y51600
X22225Y51600
X28225Y58850
X29225Y58850
X30725Y49050
X30725Y47150
X33225Y47600
X33225Y48600
X35225Y48600
X35225Y47600
X40788Y55490
X39922Y55990
X48615Y47663
X49115Y46797
X51975Y36100
X51975Y35100
T06
X31725Y25100
X31725Y21100
X31725Y20100
X31725Y16100
X25725Y16100
X25725Y20100
X25725Y21100
X25725Y25100
X26225Y46100
X24225Y46100
X24225Y50100
X26225Y50100
X28225Y50100
X28225Y46100
X26725Y56100
X30725Y56100
T07
X20725Y36600
X21725Y35600
X19725Y35600
X20725Y23550
X21725Y23550
X22725Y23550
X22725Y17850
X20725Y17850
X34725Y17850
X36725Y17850
X36725Y23550
X35725Y23550
X34725Y23550
T08
X37225Y49100
X37225Y50100
X37225Y51100
X38225Y51100
X38225Y50100
X38225Y49100
X20005Y49210
X20005Y50990
X17445Y50990
X17445Y49210
X4975Y59600
X4975Y60600
X4975Y61600
X1725Y59600
X1725Y58600
X1725Y57600
X1725Y56600
X1725Y55600
X1725Y54600
X1475Y20350
X1475Y17350
X1725Y12289
X1725Y10911
X4475Y8100
X5475Y8100
X6475Y8100
T09
X25775Y35600
X31675Y35600
T10
X33125Y20600
X38325Y20600
X24325Y20600
X19125Y20600
T11
X1225Y8100
X10875Y60600
X1225Y63000
X56225Y63100
X56225Y8100
M30
