%
M48
M72
T01C0.0200
T02C0.0276
T03C0.0300
T04C0.0315
T05C0.0320
T06C0.0354
T07C0.0394
T08C0.0400
T09C0.0470
T10C0.0866
T11C0.1300
%
T01
X19833Y22725
X23633Y23625
X23933Y25375
X25933Y24525
X26733Y23775
X26033Y22875
X28833Y27475
X27833Y27725
X32033Y24075
X35083Y25225
X32533Y31925
X35333Y36675
X25333Y39475
X24933Y36875
X21633Y39275
X22883Y32025
T02
X7333Y48475
X6333Y48475
X6333Y8225
X7333Y8225
T03
X9093Y10045
X9447Y9692
X9800Y9338
X10154Y8985
X11558Y7752
X11955Y7447
X12352Y7143
X12748Y6838
X14314Y5800
X14747Y5550
X15180Y5300
X15613Y5050
X17290Y4222
X17752Y4031
X18214Y3839
X18676Y3648
X20449Y3049
X20932Y2920
X21415Y2790
X21898Y2661
X23730Y2293
X24225Y2228
X24721Y2162
X25217Y2097
X27083Y1975
X27583Y1975
X28083Y1975
X28583Y1975
X30450Y2097
X30945Y2162
X31441Y2228
X31937Y2293
X33769Y2661
X34252Y2790
X34735Y2920
X35218Y3049
X36990Y3648
X37452Y3839
X37914Y4031
X38376Y4222
X40064Y5050
X40497Y5300
X40930Y5550
X41363Y5800
X42918Y6838
X43315Y7143
X43712Y7447
X44108Y7752
X45513Y8985
X45867Y9338
X46220Y9692
X46574Y10045
X47807Y11450
X48111Y11847
X48416Y12243
X48720Y12640
X49758Y14205
X50008Y14638
X50258Y15072
X50508Y15505
X51336Y17182
X51528Y17644
X51719Y18106
X51910Y18568
X52509Y20341
X52639Y20824
X52768Y21306
X52897Y21789
X53265Y23621
X53331Y24117
X53396Y24613
X53461Y25109
X53583Y26975
X53583Y27475
X53583Y27975
X53583Y28475
X53461Y30341
X53396Y30837
X53331Y31333
X53265Y31829
X52897Y33661
X52768Y34144
X52639Y34626
X52509Y35109
X51910Y36882
X51719Y37344
X51528Y37806
X51336Y38268
X50508Y39955
X50258Y40388
X50008Y40822
X49758Y41255
X48720Y42810
X48416Y43207
X48111Y43603
X47807Y44000
X46574Y45405
X46220Y45758
X45867Y46112
X45513Y46465
X44108Y47698
X43712Y48003
X43315Y48307
X42918Y48612
X41363Y49650
X40930Y49900
X40497Y50150
X40064Y50400
X38376Y51228
X37914Y51419
X37452Y51611
X36990Y51802
X35218Y52401
X34735Y52530
X34252Y52660
X33769Y52789
X31937Y53157
X31441Y53222
X30945Y53288
X30450Y53353
X28583Y53475
X28083Y53475
X27583Y53475
X27083Y53475
X25217Y53353
X24721Y53288
X24225Y53222
X23730Y53157
X21898Y52789
X21415Y52660
X20932Y52530
X20449Y52401
X18676Y51802
X18214Y51611
X17752Y51419
X17290Y51228
X15603Y50400
X15170Y50150
X14737Y49900
X14304Y49650
X12748Y48612
X12352Y48307
X11955Y48003
X11558Y47698
X10154Y46465
X9800Y46112
X9447Y45758
X9093Y45405
X7860Y44000
X7556Y43603
X7251Y43207
X6947Y42810
X5908Y41245
X5658Y40812
X5408Y40378
X5158Y39945
X4330Y38268
X4139Y37806
X3948Y37344
X3756Y36882
X3157Y35109
X3028Y34626
X2899Y34144
X2769Y33661
X2401Y31829
X2336Y31333
X2271Y30837
X2205Y30341
X2083Y28475
X2083Y27975
X2083Y27475
X2083Y26975
X2205Y25109
X2271Y24613
X2336Y24117
X2401Y23621
X2769Y21789
X2899Y21306
X3028Y20824
X3157Y20341
X3756Y18568
X3948Y18106
X4139Y17644
X4330Y17182
X5158Y15505
X5408Y15072
X5658Y14638
X5908Y14205
X6947Y12640
X7251Y12243
X7556Y11847
X7860Y11450
T04
X21296Y19725
X22871Y19725
X32796Y19725
X34371Y19725
T05
X36848Y19725
X38818Y19725
X47723Y15672
X48223Y16538
X39896Y7835
X39030Y7335
X29333Y11225
X29333Y12225
X29333Y13225
X29333Y14225
X29333Y16225
X29333Y17225
X27833Y17225
X27833Y16225
X26333Y16225
X26333Y17225
X26333Y14225
X26333Y13225
X26333Y12225
X26333Y11225
X27333Y4475
X28333Y4475
X16646Y7335
X15780Y7835
X7943Y15672
X7443Y16538
X16848Y19725
X18818Y19725
X4583Y27225
X4583Y28225
X7443Y38912
X7943Y39778
X15770Y47615
X16636Y48115
X21333Y46725
X22333Y46725
X23333Y46725
X24333Y46725
X25333Y46725
X26333Y46725
X27333Y46725
X28333Y46725
X29333Y46725
X30333Y46725
X31333Y46725
X32333Y46725
X33333Y46725
X34333Y46725
X34333Y43725
X33333Y43725
X32333Y43725
X31333Y43725
X30333Y43725
X29333Y43725
X28333Y43725
X27333Y43725
X26333Y43725
X25333Y43725
X24333Y43725
X23333Y43725
X22333Y43725
X21333Y43725
X27333Y50975
X28333Y50975
X29833Y41175
X29833Y39275
X32333Y39725
X32333Y40725
X34333Y40725
X34333Y39725
X39896Y47615
X39030Y48115
X47723Y39788
X48223Y38922
X51083Y28225
X51083Y27225
T06
X30833Y17225
X30833Y13225
X30833Y12225
X30833Y8225
X24833Y8225
X24833Y12225
X24833Y13225
X24833Y17225
X25333Y38225
X23333Y38225
X23333Y42225
X25333Y42225
X27333Y42225
X27333Y38225
X25833Y48225
X29833Y48225
T07
X19833Y28725
X18833Y27725
X20833Y27725
X20833Y15675
X19833Y15675
X21833Y15675
X21833Y9975
X19833Y9975
X33833Y9975
X35833Y9975
X35833Y15675
X34833Y15675
X33833Y15675
T08
X36333Y41225
X36333Y42225
X36333Y43225
X37333Y43225
X37333Y42225
X37333Y41225
X19113Y41335
X19113Y43115
X16553Y43115
X16553Y41335
X5083Y51475
X5083Y52475
X5083Y53475
X1833Y51475
X1833Y50475
X1833Y49475
X1833Y48475
X1833Y47475
X1833Y46475
X1583Y13475
X1583Y10475
X1833Y5414
X1833Y4036
X4583Y1225
X5583Y1225
X6583Y1225
T09
X24883Y27725
X30783Y27725
T10
X32233Y12725
X37433Y12725
X23433Y12725
X18233Y12725
T11
X1333Y1225
X10983Y52475
X1333Y54225
X54333Y54225
X54333Y1225
M30
