G75*
%MOIN*%
%OFA0B0*%
%FSLAX24Y24*%
%IPPOS*%
%LPD*%
%AMOC8*
5,1,8,0,0,1.08239X$1,22.5*
%
%ADD10C,0.0430*%
%ADD11C,0.1380*%
%ADD12R,0.0820X0.0820*%
%ADD13C,0.0820*%
%ADD14C,0.0640*%
%ADD15C,0.0730*%
%ADD16C,0.0880*%
%ADD17R,0.0880X0.0880*%
%ADD18C,0.0740*%
%ADD19C,0.0780*%
%ADD20R,0.1580X0.1580*%
%ADD21C,0.0580*%
%ADD22OC8,0.1080*%
D10*
X012290Y014593D02*
X012503Y014871D01*
X012107Y015175D02*
X011893Y014898D01*
X012687Y014289D02*
X012900Y014567D01*
X013297Y014262D02*
X013083Y013985D01*
X014738Y012873D02*
X014913Y013177D01*
X015346Y012927D02*
X015171Y012623D01*
X015604Y012373D02*
X015779Y012677D01*
X016212Y012427D02*
X016037Y012123D01*
X017825Y011245D02*
X017959Y011569D01*
X018421Y011377D02*
X018287Y011054D01*
X018749Y010863D02*
X018883Y011186D01*
X019345Y010995D02*
X019211Y010671D01*
X021095Y010025D02*
X021186Y010363D01*
X021669Y010234D02*
X021578Y009896D01*
X022061Y009766D02*
X022152Y010104D01*
X022635Y009975D02*
X022544Y009637D01*
X024499Y009254D02*
X024544Y009601D01*
X025040Y009536D02*
X024994Y009189D01*
X025490Y009124D02*
X025536Y009471D01*
X026031Y009406D02*
X025986Y009059D01*
X027975Y008925D02*
X027975Y009275D01*
X028475Y009275D02*
X028475Y008925D01*
X028975Y008925D02*
X028975Y009275D01*
X029475Y009275D02*
X029475Y008925D01*
X031464Y009059D02*
X031419Y009406D01*
X031914Y009471D02*
X031960Y009124D01*
X032456Y009189D02*
X032410Y009536D01*
X032906Y009601D02*
X032951Y009254D01*
X034906Y009637D02*
X034815Y009975D01*
X035298Y010104D02*
X035389Y009766D01*
X035872Y009896D02*
X035781Y010234D01*
X036264Y010363D02*
X036355Y010025D01*
X038239Y010671D02*
X038105Y010995D01*
X038567Y011186D02*
X038701Y010863D01*
X039163Y011054D02*
X039029Y011377D01*
X039491Y011569D02*
X039625Y011245D01*
X041413Y012123D02*
X041238Y012427D01*
X041671Y012677D02*
X041846Y012373D01*
X042279Y012623D02*
X042104Y012927D01*
X042537Y013177D02*
X042712Y012873D01*
X044367Y013985D02*
X044153Y014262D01*
X044550Y014567D02*
X044763Y014289D01*
X045160Y014593D02*
X044947Y014871D01*
X045343Y015175D02*
X045557Y014898D01*
X047058Y016206D02*
X046811Y016453D01*
X047164Y016807D02*
X047412Y016559D01*
X047766Y016913D02*
X047518Y017161D01*
X047872Y017514D02*
X048119Y017267D01*
X049427Y018768D02*
X049150Y018982D01*
X049454Y019378D02*
X049732Y019165D01*
X050036Y019562D02*
X049758Y019775D01*
X050063Y020172D02*
X050340Y019958D01*
X051452Y021613D02*
X051148Y021788D01*
X051398Y022221D02*
X051702Y022046D01*
X051952Y022479D02*
X051648Y022654D01*
X051898Y023087D02*
X052202Y022912D01*
X053080Y024700D02*
X052756Y024834D01*
X052948Y025296D02*
X053271Y025162D01*
X053462Y025624D02*
X053139Y025758D01*
X053330Y026220D02*
X053654Y026086D01*
X054300Y027970D02*
X053962Y028061D01*
X054091Y028544D02*
X054429Y028453D01*
X054559Y028936D02*
X054221Y029027D01*
X054350Y029510D02*
X054688Y029419D01*
X055071Y031374D02*
X054724Y031419D01*
X054789Y031915D02*
X055136Y031869D01*
X055201Y032365D02*
X054854Y032411D01*
X054919Y032906D02*
X055266Y032861D01*
X055400Y034850D02*
X055050Y034850D01*
X055050Y035350D02*
X055400Y035350D01*
X055400Y035850D02*
X055050Y035850D01*
X055050Y036350D02*
X055400Y036350D01*
X055266Y038339D02*
X054919Y038294D01*
X054854Y038789D02*
X055201Y038835D01*
X055136Y039331D02*
X054789Y039285D01*
X054724Y039781D02*
X055071Y039826D01*
X054688Y041781D02*
X054350Y041690D01*
X054221Y042173D02*
X054559Y042264D01*
X054429Y042747D02*
X054091Y042656D01*
X053962Y043139D02*
X054300Y043230D01*
X053654Y045114D02*
X053330Y044980D01*
X053139Y045442D02*
X053462Y045576D01*
X053271Y046038D02*
X052948Y045904D01*
X052756Y046366D02*
X053080Y046500D01*
X052202Y048288D02*
X051898Y048113D01*
X051648Y048546D02*
X051952Y048721D01*
X051702Y049154D02*
X051398Y048979D01*
X051148Y049412D02*
X051452Y049587D01*
X050340Y051242D02*
X050063Y051028D01*
X049758Y051425D02*
X050036Y051638D01*
X049732Y052035D02*
X049454Y051822D01*
X049150Y052218D02*
X049427Y052432D01*
X048119Y053933D02*
X047872Y053686D01*
X047518Y054039D02*
X047766Y054287D01*
X047412Y054641D02*
X047164Y054393D01*
X046811Y054747D02*
X047058Y054994D01*
X045557Y056302D02*
X045343Y056025D01*
X044947Y056329D02*
X045160Y056607D01*
X044763Y056911D02*
X044550Y056633D01*
X044153Y056938D02*
X044367Y057215D01*
X042712Y058327D02*
X042537Y058023D01*
X042104Y058273D02*
X042279Y058577D01*
X041846Y058827D02*
X041671Y058523D01*
X041238Y058773D02*
X041413Y059077D01*
X039625Y059955D02*
X039491Y059631D01*
X039029Y059823D02*
X039163Y060146D01*
X038701Y060337D02*
X038567Y060014D01*
X038105Y060205D02*
X038239Y060529D01*
X036355Y061175D02*
X036264Y060837D01*
X035781Y060966D02*
X035872Y061304D01*
X035389Y061434D02*
X035298Y061096D01*
X034815Y061225D02*
X034906Y061563D01*
X032951Y061946D02*
X032906Y061599D01*
X032410Y061664D02*
X032456Y062011D01*
X031960Y062076D02*
X031914Y061729D01*
X031419Y061794D02*
X031464Y062141D01*
X029475Y062275D02*
X029475Y061925D01*
X028975Y061925D02*
X028975Y062275D01*
X028475Y062275D02*
X028475Y061925D01*
X027975Y061925D02*
X027975Y062275D01*
X025986Y062141D02*
X026031Y061794D01*
X025536Y061729D02*
X025490Y062076D01*
X024994Y062011D02*
X025040Y061664D01*
X024544Y061599D02*
X024499Y061946D01*
X022544Y061563D02*
X022635Y061225D01*
X022152Y061096D02*
X022061Y061434D01*
X021578Y061304D02*
X021669Y060966D01*
X021186Y060837D02*
X021095Y061175D01*
X019211Y060529D02*
X019345Y060205D01*
X018883Y060014D02*
X018749Y060337D01*
X018287Y060146D02*
X018421Y059823D01*
X017959Y059631D02*
X017825Y059955D01*
X016037Y059077D02*
X016212Y058773D01*
X015779Y058523D02*
X015604Y058827D01*
X015171Y058577D02*
X015346Y058273D01*
X014913Y058023D02*
X014738Y058327D01*
X013083Y057215D02*
X013297Y056938D01*
X012900Y056633D02*
X012687Y056911D01*
X012290Y056607D02*
X012503Y056329D01*
X012107Y056025D02*
X011893Y056302D01*
X010392Y054994D02*
X010639Y054747D01*
X010286Y054393D02*
X010038Y054641D01*
X009684Y054287D02*
X009932Y054039D01*
X009578Y053686D02*
X009331Y053933D01*
X008023Y052432D02*
X008300Y052218D01*
X007996Y051822D02*
X007718Y052035D01*
X007414Y051638D02*
X007692Y051425D01*
X007387Y051028D02*
X007110Y051242D01*
X005998Y049587D02*
X006302Y049412D01*
X006052Y048979D02*
X005748Y049154D01*
X005498Y048721D02*
X005802Y048546D01*
X005552Y048113D02*
X005248Y048288D01*
X004370Y046500D02*
X004694Y046366D01*
X004502Y045904D02*
X004179Y046038D01*
X003988Y045576D02*
X004311Y045442D01*
X004120Y044980D02*
X003796Y045114D01*
X003150Y043230D02*
X003488Y043139D01*
X003359Y042656D02*
X003021Y042747D01*
X002891Y042264D02*
X003229Y042173D01*
X003100Y041690D02*
X002762Y041781D01*
X002379Y039826D02*
X002726Y039781D01*
X002661Y039285D02*
X002314Y039331D01*
X002249Y038835D02*
X002596Y038789D01*
X002531Y038294D02*
X002184Y038339D01*
X002050Y036350D02*
X002400Y036350D01*
X002400Y035850D02*
X002050Y035850D01*
X002050Y035350D02*
X002400Y035350D01*
X002400Y034850D02*
X002050Y034850D01*
X002184Y032861D02*
X002531Y032906D01*
X002596Y032411D02*
X002249Y032365D01*
X002314Y031869D02*
X002661Y031915D01*
X002726Y031419D02*
X002379Y031374D01*
X002762Y029419D02*
X003100Y029510D01*
X003229Y029027D02*
X002891Y028936D01*
X003021Y028453D02*
X003359Y028544D01*
X003488Y028061D02*
X003150Y027970D01*
X003796Y026086D02*
X004120Y026220D01*
X004311Y025758D02*
X003988Y025624D01*
X004179Y025162D02*
X004502Y025296D01*
X004694Y024834D02*
X004370Y024700D01*
X005248Y022912D02*
X005552Y023087D01*
X005802Y022654D02*
X005498Y022479D01*
X005748Y022046D02*
X006052Y022221D01*
X006302Y021788D02*
X005998Y021613D01*
X007110Y019958D02*
X007387Y020172D01*
X007692Y019775D02*
X007414Y019562D01*
X007718Y019165D02*
X007996Y019378D01*
X008300Y018982D02*
X008023Y018768D01*
X009331Y017267D02*
X009578Y017514D01*
X009932Y017161D02*
X009684Y016913D01*
X010038Y016559D02*
X010286Y016807D01*
X010639Y016453D02*
X010392Y016206D01*
D11*
X001225Y008100D03*
X010875Y060600D03*
X001225Y063000D03*
X056225Y063100D03*
X056225Y008100D03*
D12*
X037225Y051100D03*
X001725Y059600D03*
D13*
X001725Y058600D03*
X001725Y057600D03*
X001725Y056600D03*
X001725Y055600D03*
X001725Y054600D03*
X017445Y050990D03*
X017445Y049210D03*
X020005Y049210D03*
X020005Y050990D03*
X024225Y050100D03*
X026225Y050100D03*
X028225Y050100D03*
X028225Y046100D03*
X026225Y046100D03*
X024225Y046100D03*
X020725Y036600D03*
X021725Y035600D03*
X019725Y035600D03*
X025725Y025100D03*
X025725Y021100D03*
X025725Y020100D03*
X025725Y016100D03*
X031725Y016100D03*
X031725Y020100D03*
X031725Y021100D03*
X031725Y025100D03*
X037225Y049100D03*
X037225Y050100D03*
X038225Y050100D03*
X038225Y049100D03*
X038225Y051100D03*
X030725Y056100D03*
X026725Y056100D03*
X006475Y008100D03*
X005475Y008100D03*
X004475Y008100D03*
D14*
X022225Y051320D02*
X022225Y051880D01*
X023225Y051880D02*
X023225Y051320D01*
X024225Y051320D02*
X024225Y051880D01*
X025225Y051880D02*
X025225Y051320D01*
X026225Y051320D02*
X026225Y051880D01*
X027225Y051880D02*
X027225Y051320D01*
X028225Y051320D02*
X028225Y051880D01*
X029225Y051880D02*
X029225Y051320D01*
X030225Y051320D02*
X030225Y051880D01*
X031225Y051880D02*
X031225Y051320D01*
X032225Y051320D02*
X032225Y051880D01*
X033225Y051880D02*
X033225Y051320D01*
X034225Y051320D02*
X034225Y051880D01*
X035225Y051880D02*
X035225Y051320D01*
X035225Y054320D02*
X035225Y054880D01*
X034225Y054880D02*
X034225Y054320D01*
X033225Y054320D02*
X033225Y054880D01*
X032225Y054880D02*
X032225Y054320D01*
X031225Y054320D02*
X031225Y054880D01*
X030225Y054880D02*
X030225Y054320D01*
X029225Y054320D02*
X029225Y054880D01*
X028225Y054880D02*
X028225Y054320D01*
X027225Y054320D02*
X027225Y054880D01*
X026225Y054880D02*
X026225Y054320D01*
X025225Y054320D02*
X025225Y054880D01*
X024225Y054880D02*
X024225Y054320D01*
X023225Y054320D02*
X023225Y054880D01*
X022225Y054880D02*
X022225Y054320D01*
X005255Y059600D02*
X004695Y059600D01*
X004695Y060600D02*
X005255Y060600D01*
X005255Y061600D02*
X004695Y061600D01*
D15*
X007225Y057100D03*
X008225Y057100D03*
X017740Y027600D03*
X019710Y027600D03*
X007225Y015100D03*
X006225Y015100D03*
X037740Y027600D03*
X039710Y027600D03*
D16*
X001725Y010911D03*
X001475Y017350D03*
X001475Y020350D03*
D17*
X001725Y012289D03*
D18*
X008835Y023547D03*
X008335Y024413D03*
X016672Y015710D03*
X017538Y015210D03*
X027225Y024100D03*
X027225Y025100D03*
X028725Y025100D03*
X028725Y024100D03*
X030225Y024100D03*
X030225Y025100D03*
X033688Y027600D03*
X035262Y027600D03*
X040788Y015710D03*
X039922Y015210D03*
X048615Y023547D03*
X049115Y024413D03*
X051975Y035100D03*
X051975Y036100D03*
X049115Y046797D03*
X048615Y047663D03*
X040788Y055490D03*
X039922Y055990D03*
X035225Y048600D03*
X035225Y047600D03*
X033225Y047600D03*
X033225Y048600D03*
X030725Y049050D03*
X030725Y047150D03*
X029225Y058850D03*
X028225Y058850D03*
X017528Y055990D03*
X016662Y055490D03*
X008835Y047653D03*
X008335Y046787D03*
X005475Y036100D03*
X005475Y035100D03*
X022188Y027600D03*
X023762Y027600D03*
X028225Y012350D03*
X029225Y012350D03*
D19*
X034725Y017500D02*
X034725Y018200D01*
X036725Y018200D02*
X036725Y017500D01*
X036725Y023200D02*
X036725Y023900D01*
X035725Y023900D02*
X035725Y023200D01*
X034725Y023200D02*
X034725Y023900D01*
X022725Y023900D02*
X022725Y023200D01*
X021725Y023200D02*
X021725Y023900D01*
X020725Y023900D02*
X020725Y023200D01*
X020725Y018200D02*
X020725Y017500D01*
X022725Y017500D02*
X022725Y018200D01*
D20*
X024325Y020600D03*
X019125Y020600D03*
X033125Y020600D03*
X038325Y020600D03*
D21*
X030475Y020100D02*
X029975Y020100D01*
X029975Y021100D02*
X030475Y021100D01*
X030475Y022100D02*
X029975Y022100D01*
X027475Y022100D02*
X026975Y022100D01*
X026975Y021100D02*
X027475Y021100D01*
X027475Y020100D02*
X026975Y020100D01*
X026975Y019100D02*
X027475Y019100D01*
X029975Y019100D02*
X030475Y019100D01*
D22*
X031675Y035600D03*
X025775Y035600D03*
M02*
